<?xml version="1.0" encoding="utf-8"?>
<!-- Generator: Adobe Illustrator 19.2.1, SVG Export Plug-In . SVG Version: 6.00 Build 0)  -->
<svg version="1.1" id="Layer_1" xmlns="http://www.w3.org/2000/svg" xmlns:xlink="http://www.w3.org/1999/xlink" x="0px" y="0px"
	 viewBox="0 0 217.3 241.3" style="enable-background:new 0 0 217.3 241.3;" xml:space="preserve">
<style type="text/css">
	.st0{fill:#D2B382;}
	.st1{fill:#00A082;}
	.st2{fill:#F3CE94;}
	.st3{fill:#4C4C4E;}
	.st4{fill:#007962;}
	.st5{fill:#FFF9CF;}
</style>
<path class="st0" d="M3.2,146.9c0,48.9,25.2,76.1,81.4,76.1c56.2,0,81.4-27.3,81.4-76.1c0-53.1-56.6-90.3-60.3-93.1H84.6H63.5
	C59.8,56.6,3.2,93.8,3.2,146.9"/>
<path class="st1" d="M58.8,39.3"/>
<path class="st2" d="M4.2,131.9c-7.3,45.4,24.2,72.1,80.4,72.1c56.2,0,87.6-26.7,80.4-72.1c-8.4-52.5-55.6-90.7-59.3-93.5l18.6-28.3
	c-8.8-9.1-9.5-3.9-19.9,0c-10.3,3.8-10.9-7.3-19.8-7.3c-8.9,0-9.5,11.1-19.8,7.3c-10.4-3.9-11-9.1-19.9,0l18.6,28.3
	C59.8,41.2,12.6,79.4,4.2,131.9"/>
<path class="st3" d="M84.6,48.9c-8.9,0-17.9-1.9-26.2-5.8l3.6-7.8c14.3,6.7,30.8,6.7,45.2,0c2.1-1,4.7-0.1,5.7,2.1
	c1,2.1,0.1,4.7-2.1,5.7C102.5,46.9,93.5,48.9,84.6,48.9z"/>
<path class="st3" d="M106.8,79.7c-0.6,0-1.1-0.1-1.7-0.4c-1.7-0.9-2.2-3-1.3-4.7c7.8-13.9-2.6-31.4-2.7-31.6
	c-0.7-1.1-0.7-2.6,0.1-3.7c0.8-1.1,2.1-1.7,3.4-1.5c0.9,0.2,22.1,4.1,28.5,31.5c0.4,1.8-0.7,3.7-2.6,4.1c-1.8,0.4-3.7-0.7-4.1-2.6
	c-3.1-13.4-10.2-20.1-15.7-23.3c2.8,7.7,5.1,19.6-0.9,30.4C109.2,79.1,108,79.7,106.8,79.7z"/>
<path class="st3" d="M63.2,141.2c3,1.3,5.7,2.3,8.3,2.9c2.5,0.6,4.7,0.9,6.5,0.9c1.6,0,2.9-0.4,4.1-1.2c1.1-0.8,1.7-1.9,1.7-3.2
	c0-0.3,0-0.7-0.1-1c-0.1-0.4-0.2-0.7-0.3-1c-0.2-0.3-0.4-0.7-0.7-1.2c-0.3-0.5-0.6-0.8-0.9-1.1c-0.2-0.2-1.2-1.2-2.9-2.8
	c-4.9-4.7-8.1-8.1-9.8-10c-1.3-1.5-2.2-3.2-2.9-5.1c-0.7-1.9-1-3.7-1-5.5c0-1.4,0.2-2.8,0.6-4.1c0.4-1.4,1-2.6,1.8-3.9
	c0.8-1.2,1.7-2.3,2.9-3.3c1.1-1,2.3-1.8,3.7-2.4c1.3-0.6,3.3-1.3,5.9-1.9c0.1-1,0.1-1.6,0.1-1.7l0-3v-5.2c3.3,0.1,6.1,0.1,8.3,0.1
	c2.4,0,5.2,0,8.3-0.1c-0.2,3.4-0.2,5.4-0.2,6v3.9c3,0.4,6,1.1,8.9,1.9c0.2,4.9,0.5,10.1,0.9,15.4c-2.5-1.1-4.8-1.9-6.9-2.4
	c-2.1-0.5-3.8-0.7-5.2-0.7c-1.6,0-2.9,0.4-3.9,1.1c-1,0.7-1.5,1.6-1.5,2.8c0,1,0.3,1.9,0.9,2.8s1.4,1.8,2.5,2.8
	c4,3.7,6.9,6.7,8.8,8.9c1.9,2.2,3.2,4.3,4,6.3c0.8,2,1.1,4,1.1,5.9c0,1.6-0.2,3.1-0.6,4.6c-0.4,1.4-1,2.7-1.8,3.9
	c-0.8,1.2-1.7,2.3-2.7,3.2c-1,0.9-2.1,1.8-3.2,2.4c-1.1,0.7-2.7,1.5-4.9,2.3l-0.1,5.8c0,1.9,0,3.8,0,5.6c-3.3-0.1-6-0.1-7.9-0.1
	c-2,0-4.8,0-8.7,0.1c0.2-2.1,0.2-4.8,0.2-8.1v-1.9c-2.5-0.3-4.5-0.7-6.2-1.1c-1.7-0.4-3.7-0.9-6.1-1.7
	C63.7,149.4,63.5,144.1,63.2,141.2z"/>
<polyline class="st4" points="212.2,183.9 111.5,222.9 90,167.3 190.7,128.3 212.2,183.9 "/>
<polyline class="st1" points="209.6,177.1 108.9,216.1 87.3,160.5 188,121.5 209.6,177.1 "/>
<path class="st4" d="M198.5,164.7l-10.3-26.5c-5,1.9-10.7-0.5-12.6-5.6L104,160.3c1.9,5-0.5,10.7-5.6,12.6l10.3,26.5
	c5-1.9,10.7,0.5,12.6,5.6l71.6-27.7C190.9,172.3,193.4,166.6,198.5,164.7z"/>
<ellipse transform="matrix(0.9325 -0.3613 0.3613 0.9325 -50.959 65.0319)" class="st1" cx="148.5" cy="168.8" rx="16.6" ry="16.6"/>
<path class="st5" d="M144.6,173.7c0.8,0,1.6,0,2.2-0.1c0.6-0.1,1.2-0.2,1.6-0.4c0.4-0.1,0.7-0.4,0.9-0.6c0.2-0.3,0.2-0.6,0.1-0.9
	c0-0.1-0.1-0.2-0.1-0.2c-0.1-0.1-0.1-0.1-0.2-0.2c-0.1-0.1-0.2-0.1-0.3-0.2c-0.1-0.1-0.2-0.1-0.3-0.2c-0.1,0-0.4-0.2-0.9-0.4
	c-1.6-0.7-2.7-1.2-3.2-1.5c-0.4-0.2-0.8-0.6-1.2-0.9c-0.3-0.4-0.6-0.8-0.7-1.2c-0.1-0.3-0.2-0.7-0.2-1c0-0.4,0-0.7,0.1-1.1
	c0.1-0.4,0.2-0.7,0.4-1c0.2-0.3,0.4-0.6,0.6-0.9c0.3-0.3,0.7-0.6,1.2-1c-0.1-0.2-0.1-0.4-0.1-0.4l-0.3-0.7l-0.5-1.2
	c0.8-0.3,1.4-0.5,2-0.7c0.6-0.2,1.2-0.5,1.9-0.8c0.3,0.8,0.4,1.3,0.5,1.4l0.4,0.9c0.8-0.2,1.5-0.3,2.3-0.4c0.5,1.1,1,2.3,1.6,3.5
	c-0.7,0-1.3,0-1.8,0.1c-0.5,0.1-1,0.2-1.3,0.3c-0.4,0.1-0.6,0.3-0.8,0.6c-0.2,0.3-0.2,0.5-0.1,0.8c0.1,0.2,0.2,0.4,0.5,0.6
	c0.2,0.1,0.5,0.3,0.9,0.4c1.3,0.5,2.2,0.9,2.9,1.3c0.6,0.4,1.2,0.7,1.5,1.1c0.4,0.4,0.6,0.8,0.8,1.3c0.1,0.4,0.2,0.8,0.3,1.1
	c0,0.4,0,0.7-0.1,1.1c-0.1,0.4-0.2,0.7-0.4,1c-0.2,0.3-0.3,0.6-0.5,0.9c-0.2,0.3-0.5,0.6-0.9,1l0.5,1.4c0.2,0.5,0.3,0.9,0.5,1.3
	c-0.8,0.3-1.4,0.5-1.9,0.7c-0.5,0.2-1.1,0.4-2,0.8c-0.2-0.5-0.4-1.2-0.7-1.9l-0.2-0.4c-0.6,0.1-1.1,0.3-1.6,0.3
	c-0.4,0.1-1,0.1-1.6,0.1C145.4,175.6,144.9,174.4,144.6,173.7z"/>
<polyline class="st4" points="91.8,237.6 91.8,178 199.8,178.1 "/>
<polyline class="st1" points="199.8,231.1 91.8,230.9 91.9,171.3 199.9,171.4 "/>
<path class="st4" d="M194,215.4l0-28.4c-5.4,0-9.8-4.4-9.7-9.8l-76.7-0.1c0,5.4-4.4,9.8-9.8,9.7l0,28.4c5.4,0,9.8,4.4,9.7,9.8
	l76.7,0.1C184.2,219.8,188.6,215.4,194,215.4z"/>
<ellipse transform="matrix(1.002664e-003 -1 1 1.002664e-003 -55.4895 346.8185)" class="st1" cx="145.8" cy="201.2" rx="16.6" ry="16.6"/>
<path class="st5" d="M140.4,204.4c0.8,0.3,1.4,0.6,2.1,0.7c0.6,0.2,1.2,0.2,1.6,0.2c0.4,0,0.7-0.1,1-0.3c0.3-0.2,0.4-0.5,0.4-0.8
	c0-0.1,0-0.2,0-0.3c0-0.1,0-0.2-0.1-0.2c0-0.1-0.1-0.2-0.2-0.3c-0.1-0.1-0.2-0.2-0.2-0.3c-0.1-0.1-0.3-0.3-0.7-0.7
	c-1.2-1.2-2.1-2-2.5-2.5c-0.3-0.4-0.6-0.8-0.7-1.3c-0.2-0.5-0.3-0.9-0.3-1.4c0-0.4,0.1-0.7,0.2-1c0.1-0.3,0.3-0.7,0.5-1
	c0.2-0.3,0.4-0.6,0.7-0.8c0.3-0.2,0.6-0.4,0.9-0.6c0.3-0.2,0.8-0.3,1.5-0.5c0-0.2,0-0.4,0-0.4l0-0.8l0-1.3c0.8,0,1.5,0,2.1,0
	c0.6,0,1.3,0,2.1,0c0,0.9-0.1,1.4-0.1,1.5l0,1c0.8,0.1,1.5,0.3,2.3,0.5c0.1,1.2,0.1,2.5,0.2,3.9c-0.6-0.3-1.2-0.5-1.7-0.6
	c-0.5-0.1-1-0.2-1.3-0.2c-0.4,0-0.7,0.1-1,0.3c-0.3,0.2-0.4,0.4-0.4,0.7c0,0.2,0.1,0.5,0.2,0.7c0.2,0.2,0.4,0.5,0.6,0.7
	c1,0.9,1.7,1.7,2.2,2.3c0.5,0.6,0.8,1.1,1,1.6c0.2,0.5,0.3,1,0.3,1.5c0,0.4-0.1,0.8-0.2,1.2c-0.1,0.4-0.3,0.7-0.5,1
	c-0.2,0.3-0.4,0.6-0.7,0.8c-0.3,0.2-0.5,0.4-0.8,0.6c-0.3,0.2-0.7,0.4-1.2,0.6l0,1.5c0,0.5,0,1,0,1.4c-0.8,0-1.5,0-2,0
	c-0.5,0-1.2,0-2.2,0c0-0.5,0.1-1.2,0.1-2l0-0.5c-0.6-0.1-1.1-0.2-1.6-0.3c-0.4-0.1-0.9-0.2-1.5-0.4
	C140.6,206.4,140.5,205.1,140.4,204.4z"/>
</svg>
