<?xml version="1.0" encoding="utf-8"?>
<!-- Generator: Adobe Illustrator 19.2.1, SVG Export Plug-In . SVG Version: 6.00 Build 0)  -->
<svg version="1.1" id="Objects" xmlns="http://www.w3.org/2000/svg" xmlns:xlink="http://www.w3.org/1999/xlink" x="0px" y="0px"
	 viewBox="0 0 291.1 158.4" style="enable-background:new 0 0 291.1 158.4;" xml:space="preserve">
<style type="text/css">
	.st0{opacity:0.8;fill:url(#SVGID_1_);}
	.st1{opacity:0.8;fill:url(#SVGID_2_);}
	.st2{opacity:0.8;fill:url(#SVGID_3_);}
	.st3{fill:url(#SVGID_4_);}
	.st4{fill:url(#SVGID_5_);}
	.st5{fill:url(#SVGID_6_);}
	.st6{opacity:0.2;fill:url(#SVGID_7_);}
	.st7{fill:url(#SVGID_8_);}
	.st8{fill:url(#SVGID_9_);}
	.st9{fill:url(#SVGID_10_);}
	.st10{fill:url(#SVGID_11_);}
	.st11{fill:url(#SVGID_12_);}
	.st12{fill:url(#SVGID_13_);}
	.st13{fill:url(#SVGID_14_);}
	.st14{fill:url(#SVGID_15_);}
	.st15{fill:url(#SVGID_16_);}
	.st16{fill:url(#SVGID_17_);}
	.st17{fill:#CFCFCF;}
	.st18{opacity:0.6;fill:url(#SVGID_18_);}
	.st19{fill:url(#SVGID_19_);}
	.st20{fill:url(#SVGID_20_);}
	.st21{opacity:0.16;}
	.st22{fill:#1D1D1B;}
	.st23{fill:url(#SVGID_21_);}
	.st24{fill:url(#SVGID_22_);}
	.st25{fill:url(#SVGID_23_);}
	.st26{fill:url(#SVGID_24_);}
	.st27{opacity:0.2;fill:url(#SVGID_25_);}
	.st28{fill:url(#SVGID_26_);}
	.st29{opacity:0.2;fill:url(#SVGID_27_);}
	.st30{fill:url(#SVGID_28_);}
	.st31{fill:url(#SVGID_29_);}
	.st32{fill:url(#SVGID_30_);}
	.st33{fill:url(#SVGID_31_);}
	.st34{fill:url(#SVGID_32_);}
	.st35{fill:url(#SVGID_33_);}
	.st36{fill:url(#SVGID_34_);}
	.st37{opacity:0.6;fill:url(#SVGID_35_);}
	.st38{fill-rule:evenodd;clip-rule:evenodd;fill:#FC6E49;}
	.st39{fill-rule:evenodd;clip-rule:evenodd;fill:#414F59;}
</style>
<g>
	
		<radialGradient id="SVGID_1_" cx="250.4878" cy="91.7458" r="238.9059" gradientTransform="matrix(0.2081 0 0 7.456945e-003 15.2132 126.0784)" gradientUnits="userSpaceOnUse">
		<stop  offset="0" style="stop-color:#000000"/>
		<stop  offset="1" style="stop-color:#000000;stop-opacity:0"/>
	</radialGradient>
	<ellipse class="st0" cx="67.3" cy="126.8" rx="49.9" ry="1.9"/>
	
		<radialGradient id="SVGID_2_" cx="1034.9758" cy="91.7458" r="238.9056" gradientTransform="matrix(0.2081 0 0 7.456945e-003 15.2132 126.0784)" gradientUnits="userSpaceOnUse">
		<stop  offset="0" style="stop-color:#000000"/>
		<stop  offset="1" style="stop-color:#000000;stop-opacity:0"/>
	</radialGradient>
	<ellipse class="st1" cx="230.6" cy="126.8" rx="49.9" ry="1.9"/>
	
		<radialGradient id="SVGID_3_" cx="521.8054" cy="107.5407" r="238.8733" gradientTransform="matrix(0.59 0 0 1.392615e-002 -158.1922 125.2652)" gradientUnits="userSpaceOnUse">
		<stop  offset="0" style="stop-color:#000000"/>
		<stop  offset="1" style="stop-color:#000000;stop-opacity:0"/>
	</radialGradient>
	<ellipse class="st2" cx="149.7" cy="126.8" rx="141.5" ry="3.5"/>
	<g>
		<linearGradient id="SVGID_4_" gradientUnits="userSpaceOnUse" x1="175.3002" y1="53.4173" x2="209.1306" y2="25.0303">
			<stop  offset="5.650790e-002" style="stop-color:#FFFFFF"/>
			<stop  offset="7.970560e-002" style="stop-color:#FAFDFE"/>
			<stop  offset="0.2282" style="stop-color:#DCF0FA"/>
			<stop  offset="0.3556" style="stop-color:#CAE8F8"/>
			<stop  offset="0.4463" style="stop-color:#C3E5F7"/>
			<stop  offset="0.4961" style="stop-color:#D9EEFA"/>
			<stop  offset="0.555" style="stop-color:#EAF6FC"/>
			<stop  offset="0.6273" style="stop-color:#F6FBFE"/>
			<stop  offset="0.7265" style="stop-color:#FDFEFF"/>
			<stop  offset="0.9779" style="stop-color:#FFFFFF"/>
		</linearGradient>
		<path class="st3" d="M179.8,13.4c0,0,23.1,28.8,30.3,47h-29L179.8,13.4z"/>
		<linearGradient id="SVGID_5_" gradientUnits="userSpaceOnUse" x1="146.345" y1="107.0325" x2="146.345" y2="12.2186">
			<stop  offset="3.015020e-003" style="stop-color:#348223"/>
			<stop  offset="0.4847" style="stop-color:#78B92E"/>
			<stop  offset="0.997" style="stop-color:#C5F73B"/>
		</linearGradient>
		<path class="st4" d="M21.2,75.9c0-7.2,0.8-10.7,7.2-12.1c6.4-1.3,31.3-3.3,31.3-3.3S94.9,16.3,97,14.5c2.6-2.2,3-2.2,6.9-2.2
			c0,0,71.9,0,73.6,0c2.2,0,2.6,0.2,4,3.2c1.3,2.7,16.3,42.1,16.3,42.1s68.6,14.8,71.1,15.3c2.5,0.5,2.5,1.5,2.5,3.5
			c0,2,0,30.7,0,30.7h-13.1l-3.1-11.7h-48.8l-2.9,11.7H93.8l-3.2-10.6H42.2L38.8,107H21.2C21.2,107,21.2,83.1,21.2,75.9z"/>
		<linearGradient id="SVGID_6_" gradientUnits="userSpaceOnUse" x1="146.345" y1="130.4011" x2="146.345" y2="93.224">
			<stop  offset="0.4088" style="stop-color:#000000"/>
			<stop  offset="0.4175" style="stop-color:#000000;stop-opacity:0.9842"/>
			<stop  offset="0.9578" style="stop-color:#000000;stop-opacity:0"/>
		</linearGradient>
		<path class="st5" d="M21.2,91.5c0,7.9,0,15.5,0,15.5h17.6l3.5-10.6h48.4l3.2,10.6h109.8l2.9-11.7h48.8l3.1,11.7h13.1
			c0,0,0-7.8,0-15.5H21.2z"/>
		<linearGradient id="SVGID_7_" gradientUnits="userSpaceOnUse" x1="146.345" y1="91.4456" x2="146.345" y2="52.5714">
			<stop  offset="0" style="stop-color:#FFFFFF"/>
			<stop  offset="0.5574" style="stop-color:#F7F7F7;stop-opacity:0"/>
		</linearGradient>
		<path class="st6" d="M269,74c-2.5-0.5-71.1-15.3-71.1-15.3s-15-39.3-16.3-42.1c-1.4-3.1-1.8-3.2-4-3.2c-1.7,0-73.6,0-73.6,0
			c-4,0-4.4,0-6.9,2.2c-2.1,1.9-37.4,46.1-37.4,46.1s-24.8,1.9-31.3,3.3c-6.4,1.3-7.2,4.9-7.2,12.1c0,3.2,0,8,0,14.3h250.3
			c0-7.3,0-12.9,0-13.9C271.5,75.5,271.5,74.5,269,74z"/>
		<linearGradient id="SVGID_8_" gradientUnits="userSpaceOnUse" x1="28.3868" y1="114.9335" x2="28.3868" y2="86.3169">
			<stop  offset="0" style="stop-color:#5E5E5E"/>
			<stop  offset="0.2517" style="stop-color:#616161"/>
			<stop  offset="0.3921" style="stop-color:#696969"/>
			<stop  offset="0.5051" style="stop-color:#777777"/>
			<stop  offset="0.6036" style="stop-color:#8A8A8A"/>
			<stop  offset="0.6925" style="stop-color:#A4A4A4"/>
			<stop  offset="0.7746" style="stop-color:#C3C3C3"/>
			<stop  offset="0.8499" style="stop-color:#E7E7E7"/>
			<stop  offset="0.8786" style="stop-color:#F7F7F7"/>
		</linearGradient>
		<path class="st7" d="M32.6,108.3c0,0-5.4,0-9.6,0c-4.2,0-5-1.8-5-5.8c0-4,0-11,0-11h20.8C38.8,91.5,36.6,101,32.6,108.3z"/>
		<g>
			<linearGradient id="SVGID_9_" gradientUnits="userSpaceOnUse" x1="19.4056" y1="103.934" x2="19.4056" y2="97.3006">
				<stop  offset="0" style="stop-color:#910009"/>
				<stop  offset="2.716124e-002" style="stop-color:#970109"/>
				<stop  offset="0.1849" style="stop-color:#B40809"/>
				<stop  offset="0.3526" style="stop-color:#CB0E08"/>
				<stop  offset="0.5327" style="stop-color:#DB1208"/>
				<stop  offset="0.7341" style="stop-color:#E51408"/>
				<stop  offset="1" style="stop-color:#E81508"/>
			</linearGradient>
			<path class="st8" d="M21.5,97.3h-4.1c0,0,0,2.4,0,4.3c0,2.4,0.1,2.3,0.6,2.3c0.5,0,1.4,0,1.8,0c1.7,0,1.7-0.2,1.7-3.2
				C21.5,97.8,21.5,97.3,21.5,97.3z"/>
			<linearGradient id="SVGID_10_" gradientUnits="userSpaceOnUse" x1="19.4056" y1="97.3006" x2="19.4056" y2="94.2669">
				<stop  offset="3.015020e-003" style="stop-color:#F7DE00"/>
				<stop  offset="0.2993" style="stop-color:#F6DB00"/>
				<stop  offset="0.51" style="stop-color:#F4D201"/>
				<stop  offset="0.6942" style="stop-color:#F1C203"/>
				<stop  offset="0.862" style="stop-color:#ECAC06"/>
				<stop  offset="1" style="stop-color:#E69409"/>
			</linearGradient>
			<path class="st9" d="M21.5,97.3c0-1.7,0-3,0-3h-4.1c0,0,0,1.4,0,3H21.5z"/>
		</g>
		<g>
			
				<linearGradient id="SVGID_11_" gradientUnits="userSpaceOnUse" x1="-76.4176" y1="-604.6862" x2="-76.4176" y2="-613.1119" gradientTransform="matrix(-1 0 0 -1 -54.5706 -533.0316)">
				<stop  offset="0" style="stop-color:#E81508"/>
				<stop  offset="0.4625" style="stop-color:#E61508"/>
				<stop  offset="0.6291" style="stop-color:#DF1308"/>
				<stop  offset="0.7478" style="stop-color:#D41008"/>
				<stop  offset="0.8438" style="stop-color:#C30C08"/>
				<stop  offset="0.9251" style="stop-color:#AD0709"/>
				<stop  offset="0.9967" style="stop-color:#920009"/>
				<stop  offset="1" style="stop-color:#910009"/>
			</linearGradient>
			<path class="st10" d="M18.1,80.1h7.4c0,0,0-3.9,0-5.9c0-2.1-0.3-2.5-1.6-2.5c-1.3,0-1.9,0-3,0c-1.4,0-2.8,0.2-2.8,3.4
				C18.1,78.3,18.1,80.1,18.1,80.1z"/>
			
				<linearGradient id="SVGID_12_" gradientUnits="userSpaceOnUse" x1="-76.4176" y1="-613.1119" x2="-76.4176" y2="-618.0016" gradientTransform="matrix(-1 0 0 -1 -54.5706 -533.0316)">
				<stop  offset="3.015020e-003" style="stop-color:#F7DE00"/>
				<stop  offset="1" style="stop-color:#E69409"/>
			</linearGradient>
			<path class="st11" d="M18.1,80.1c0,1.8,0,4.9,0,4.9h7.4c0,0,0-3.1,0-4.9H18.1z"/>
		</g>
		<g>
			<g>
				
					<linearGradient id="SVGID_13_" gradientUnits="userSpaceOnUse" x1="67.0996" y1="117.5936" x2="67.0996" y2="75.0783" gradientTransform="matrix(1 -1.800000e-003 1.800000e-003 1 -0.5645 0.4376)">
					<stop  offset="3.015020e-003" style="stop-color:#348223"/>
					<stop  offset="0.3273" style="stop-color:#217212"/>
					<stop  offset="0.6955" style="stop-color:#126605"/>
					<stop  offset="1" style="stop-color:#0D6200"/>
				</linearGradient>
				<path class="st12" d="M66.7,79.8c-15,0-27.1,11.6-27.1,25.8l54.2-0.1C93.8,91.3,81.6,79.7,66.7,79.8z"/>
				
					<linearGradient id="SVGID_14_" gradientUnits="userSpaceOnUse" x1="67.0998" y1="76.961" x2="67.0998" y2="112.8101" gradientTransform="matrix(1 -1.800000e-003 1.800000e-003 1 -0.5645 0.4376)">
					<stop  offset="3.015020e-003" style="stop-color:#D4F774"/>
					<stop  offset="0.1513" style="stop-color:#AEDD61"/>
					<stop  offset="0.3394" style="stop-color:#84C04C"/>
					<stop  offset="0.523" style="stop-color:#63A93B"/>
					<stop  offset="0.698" style="stop-color:#4B9930"/>
					<stop  offset="0.861" style="stop-color:#3D8F28"/>
					<stop  offset="1" style="stop-color:#388C26"/>
				</linearGradient>
				<path class="st13" d="M40.1,107.1C41.5,93,52.8,82,66.7,81.9c13.8,0,25.2,10.9,26.6,25l1.4,0c0,0,0,0,0,0
					c0-15.4-12.6-28-28-27.9c-15.4,0-27.9,12.6-27.9,28c0,0,0,0,0,0L40.1,107.1z"/>
			</g>
			<g>
				
					<radialGradient id="SVGID_15_" cx="64.7185" cy="106.637" r="24.219" gradientTransform="matrix(0.9998 2.190000e-002 -2.190000e-002 0.9998 4.3558 -1.7294)" gradientUnits="userSpaceOnUse">
					<stop  offset="0" style="stop-color:#000000"/>
					<stop  offset="0.4223" style="stop-color:#020202"/>
					<stop  offset="0.637" style="stop-color:#0A0A0A"/>
					<stop  offset="0.8049" style="stop-color:#171717"/>
					<stop  offset="0.9477" style="stop-color:#2A2A2A"/>
					<stop  offset="1" style="stop-color:#333333"/>
				</radialGradient>
				<circle class="st14" cx="66.7" cy="106.3" r="20.5"/>
				
					<radialGradient id="SVGID_16_" cx="64.7187" cy="106.637" r="13.2958" gradientTransform="matrix(0.9998 2.190000e-002 -2.190000e-002 0.9998 4.3558 -1.7294)" gradientUnits="userSpaceOnUse">
					<stop  offset="3.015020e-003" style="stop-color:#3B3B3B"/>
					<stop  offset="1" style="stop-color:#333333"/>
				</radialGradient>
				<circle class="st15" cx="66.7" cy="106.3" r="13.3"/>
				
					<radialGradient id="SVGID_17_" cx="64.7187" cy="106.637" r="14.0476" gradientTransform="matrix(0.9998 2.190000e-002 -2.190000e-002 0.9998 4.3558 -1.7294)" gradientUnits="userSpaceOnUse">
					<stop  offset="0.2973" style="stop-color:#333333"/>
					<stop  offset="0.5033" style="stop-color:#757575"/>
					<stop  offset="0.7397" style="stop-color:#BBBBBB"/>
					<stop  offset="0.9105" style="stop-color:#E7E7E7"/>
					<stop  offset="0.997" style="stop-color:#F7F7F7"/>
				</radialGradient>
				<circle class="st16" cx="66.7" cy="106.3" r="12.2"/>
				
					<ellipse transform="matrix(2.189375e-002 -0.9998 0.9998 2.189375e-002 -41.0129 170.6862)" class="st17" cx="66.7" cy="106.3" rx="8.3" ry="8.3"/>
				
					<radialGradient id="SVGID_18_" cx="64.7187" cy="106.637" r="5.1784" gradientTransform="matrix(0.9998 2.190000e-002 -2.190000e-002 0.9998 4.3558 -1.7294)" gradientUnits="userSpaceOnUse">
					<stop  offset="0.3884" style="stop-color:#333333"/>
					<stop  offset="0.5465" style="stop-color:#2D2D2D"/>
					<stop  offset="0.75" style="stop-color:#1D1D1D"/>
					<stop  offset="0.9775" style="stop-color:#030303"/>
					<stop  offset="1" style="stop-color:#000000"/>
				</radialGradient>
				<circle class="st18" cx="66.7" cy="106.3" r="5.2"/>
			</g>
		</g>
		<linearGradient id="SVGID_19_" gradientUnits="userSpaceOnUse" x1="141.8187" y1="58.3851" x2="184.2227" y2="22.8039">
			<stop  offset="5.650790e-002" style="stop-color:#FFFFFF"/>
			<stop  offset="8.364039e-002" style="stop-color:#F7FCFF"/>
			<stop  offset="0.1597" style="stop-color:#E5F7FF"/>
			<stop  offset="0.2139" style="stop-color:#DEF5FF"/>
			<stop  offset="0.2297" style="stop-color:#E3F7FF"/>
			<stop  offset="0.2928" style="stop-color:#F3FBFF"/>
			<stop  offset="0.3651" style="stop-color:#FCFEFF"/>
			<stop  offset="0.466" style="stop-color:#FFFFFF"/>
			<stop  offset="0.6863" style="stop-color:#CAE1F9"/>
			<stop  offset="0.7986" style="stop-color:#E4EFFC"/>
			<stop  offset="0.9363" style="stop-color:#FFFFFF"/>
		</linearGradient>
		<path class="st19" d="M141.1,15.4v42.1h53.5c0,0-13.1-37.1-14.8-39.7c-1.5-2.4-1.6-2.4-5.6-2.4C169.4,15.4,141.1,15.4,141.1,15.4z
			"/>
		<linearGradient id="SVGID_20_" gradientUnits="userSpaceOnUse" x1="83.233" y1="65.7472" x2="136.2009" y2="21.3019">
			<stop  offset="0.3709" style="stop-color:#FFFFFF"/>
			<stop  offset="0.5601" style="stop-color:#CAE1F9"/>
			<stop  offset="0.6847" style="stop-color:#EBF4FD"/>
			<stop  offset="0.7757" style="stop-color:#FFFFFF"/>
			<stop  offset="0.8043" style="stop-color:#FDFEFF"/>
			<stop  offset="0.8146" style="stop-color:#F6FAFD"/>
			<stop  offset="0.8219" style="stop-color:#EBF3FB"/>
			<stop  offset="0.8226" style="stop-color:#E9F2FB"/>
			<stop  offset="0.8826" style="stop-color:#F7FBFE"/>
			<stop  offset="0.9373" style="stop-color:#FFFFFF"/>
		</linearGradient>
		<path class="st20" d="M131.6,15.4v42.1H76.7c0,0,21.5-35.4,24.7-39c2.8-3.1,2.8-3.1,7.2-3.1C111.1,15.4,131.6,15.4,131.6,15.4z"/>
		<g class="st21">
			<path class="st22" d="M76.7,60c0,0,0,0.9,0.1,2.3c0,1.5,0.1,3.6,0.2,6.2c0,1.3,0.1,2.7,0.1,4.1c0,0.2,0-0.1,0-0.1
				c0,0,0.1,0.1,0.2,0.1c0.1,0.1,0.3,0.2,0.5,0.2c0.3,0.1,0.7,0.3,1,0.4c0.7,0.3,1.4,0.6,2.2,1c2.9,1.4,5.9,3.2,8.5,5.6
				c2.6,2.3,4.7,5.1,6.2,8c1.5,2.9,2.4,5.8,2.9,8.3c0.5,2.5,0.6,4.7,0.6,6.2c0,0.7,0,1.3,0,1.7c0,0.4,0,0.6,0,0.6s0-0.9-0.2-2.3
				c-0.1-1.5-0.4-3.6-1-6.1c-0.6-2.5-1.6-5.3-3.1-8c-1.5-2.8-3.6-5.4-6.1-7.7c-2.5-2.3-5.3-4.1-8.2-5.5c-0.7-0.4-1.4-0.7-2.1-1
				c-0.4-0.2-0.7-0.3-1-0.5c-0.2-0.1-0.3-0.2-0.5-0.3c-0.1-0.1-0.2-0.1-0.3-0.2c0,0-0.2-0.3-0.2-0.3l0,0c0,0,0-0.2,0-0.1l0,0l0-0.1
				c0-1.5,0.1-2.9,0.1-4.1c0-2.6,0.1-4.7,0.2-6.2C76.6,60.9,76.7,60,76.7,60z"/>
		</g>
		<g class="st21">
			<path class="st22" d="M137.8,62c0,0,0,0.7,0.1,1.9c0,1.2,0.1,2.9,0.2,4.9c0,2,0.1,4.4,0.2,7c0,2.6,0,5.3,0.1,8c0,2.7,0,5.4-0.1,8
				c0,2.6-0.1,4.9-0.2,7c0,2-0.1,3.7-0.2,4.9c-0.1,1.2-0.1,1.9-0.1,1.9s0-0.7-0.1-1.9c0-1.2-0.1-2.9-0.2-4.9c0-2-0.1-4.4-0.2-7
				c0-2.6,0-5.3-0.1-8c0-2.7,0-5.4,0.1-8c0-2.6,0.1-4.9,0.2-7c0-2,0.1-3.7,0.2-4.9C137.8,62.6,137.8,62,137.8,62z"/>
		</g>
		<g class="st21">
			<path class="st22" d="M194.6,62c0,0,0,0.7,0.1,1.9c0,1.2,0.1,2.9,0.2,4.9c0,2,0.1,4.4,0.2,7c0,2.6,0,5.3,0.1,8c0,2.7,0,5.4-0.1,8
				c0,2.6-0.1,4.9-0.2,7c0,2-0.1,3.7-0.2,4.9c-0.1,1.2-0.1,1.9-0.1,1.9s0-0.7-0.1-1.9c0-1.2-0.1-2.9-0.2-4.9c0-2-0.1-4.4-0.2-7
				c0-2.6,0-5.3-0.1-8c0-2.7,0-5.4,0.1-8c0-2.6,0.1-4.9,0.2-7c0-2,0.1-3.7,0.2-4.9C194.6,62.6,194.6,62,194.6,62z"/>
		</g>
		<linearGradient id="SVGID_21_" gradientUnits="userSpaceOnUse" x1="263.6925" y1="113.1993" x2="263.6925" y2="84.8819">
			<stop  offset="0" style="stop-color:#5E5E5E"/>
			<stop  offset="0.2517" style="stop-color:#616161"/>
			<stop  offset="0.3921" style="stop-color:#696969"/>
			<stop  offset="0.5051" style="stop-color:#777777"/>
			<stop  offset="0.6036" style="stop-color:#8A8A8A"/>
			<stop  offset="0.6925" style="stop-color:#A4A4A4"/>
			<stop  offset="0.7746" style="stop-color:#C3C3C3"/>
			<stop  offset="0.8499" style="stop-color:#E7E7E7"/>
			<stop  offset="0.8786" style="stop-color:#F7F7F7"/>
		</linearGradient>
		<path class="st23" d="M276.3,91.4c-0.1,0,0,5.8,0,10.3c0,2.5,0,6.7-3.5,6.7c-3.8,0-12.1,0-13.2,0c-1.1,0-8.6-17-8.6-17
			S276.4,91.4,276.3,91.4z"/>
		<g>
			<linearGradient id="SVGID_22_" gradientUnits="userSpaceOnUse" x1="200.6946" y1="71.2729" x2="182.5126" y2="46.1818">
				<stop  offset="0" style="stop-color:#F7F7F7"/>
				<stop  offset="0.3212" style="stop-color:#B0B0B0"/>
				<stop  offset="0.6423" style="stop-color:#6F6F6F"/>
				<stop  offset="0.875" style="stop-color:#474747"/>
				<stop  offset="0.9953" style="stop-color:#383838"/>
			</linearGradient>
			<path class="st24" d="M184.6,49.7l6.3,11.7c0,0,2.5,0,3-3.1l-9.3-9.7V49.7z"/>
			<linearGradient id="SVGID_23_" gradientUnits="userSpaceOnUse" x1="177.3631" y1="56.2419" x2="188.2817" y2="42.9119">
				<stop  offset="0.4291" style="stop-color:#8C8C8C"/>
				<stop  offset="0.5658" style="stop-color:#8F8F8F"/>
				<stop  offset="0.672" style="stop-color:#999999"/>
				<stop  offset="0.768" style="stop-color:#AAAAAA"/>
				<stop  offset="0.858" style="stop-color:#C1C1C1"/>
				<stop  offset="0.943" style="stop-color:#DFDFDF"/>
				<stop  offset="1" style="stop-color:#F7F7F7"/>
			</linearGradient>
			<path class="st25" d="M182,56.1h0.8c1.5,0,2.7-0.8,2.7-1.8V44c0-1-1.2-1.8-2.7-1.8H182V56.1z"/>
		</g>
		<g>
			<linearGradient id="SVGID_24_" gradientUnits="userSpaceOnUse" x1="93.2935" y1="71.0859" x2="93.2935" y2="65.5693">
				<stop  offset="0.2973" style="stop-color:#333333"/>
				<stop  offset="0.4749" style="stop-color:#787878"/>
				<stop  offset="0.6358" style="stop-color:#AFAFAF"/>
				<stop  offset="0.7736" style="stop-color:#D6D6D6"/>
				<stop  offset="0.8828" style="stop-color:#EEEEEE"/>
				<stop  offset="0.9499" style="stop-color:#F7F7F7"/>
			</linearGradient>
			<path class="st26" d="M99.9,67.6v-0.5c0-1-0.8-1.7-1.7-1.7h-9.7c-1,0-1.7,0.8-1.7,1.7v0.5H99.9z"/>
			<linearGradient id="SVGID_25_" gradientUnits="userSpaceOnUse" x1="93.2935" y1="70.8577" x2="93.2935" y2="67.5892">
				<stop  offset="0" style="stop-color:#000000;stop-opacity:0"/>
				<stop  offset="0.8581" style="stop-color:#000000;stop-opacity:0.8581"/>
				<stop  offset="1" style="stop-color:#000000"/>
			</linearGradient>
			<rect x="86.7" y="67.6" class="st27" width="13.1" height="3.3"/>
		</g>
		<g>
			<linearGradient id="SVGID_26_" gradientUnits="userSpaceOnUse" x1="151.1934" y1="71.0859" x2="151.1934" y2="65.5693">
				<stop  offset="0.2973" style="stop-color:#333333"/>
				<stop  offset="0.4749" style="stop-color:#787878"/>
				<stop  offset="0.6358" style="stop-color:#AFAFAF"/>
				<stop  offset="0.7736" style="stop-color:#D6D6D6"/>
				<stop  offset="0.8828" style="stop-color:#EEEEEE"/>
				<stop  offset="0.9499" style="stop-color:#F7F7F7"/>
			</linearGradient>
			<path class="st28" d="M157.8,67.6v-0.5c0-1-0.8-1.7-1.7-1.7h-9.7c-1,0-1.7,0.8-1.7,1.7v0.5H157.8z"/>
			<linearGradient id="SVGID_27_" gradientUnits="userSpaceOnUse" x1="151.1934" y1="70.8577" x2="151.1934" y2="67.5892">
				<stop  offset="0" style="stop-color:#000000;stop-opacity:0"/>
				<stop  offset="0.8581" style="stop-color:#000000;stop-opacity:0.8581"/>
				<stop  offset="1" style="stop-color:#000000"/>
			</linearGradient>
			<rect x="144.6" y="67.6" class="st29" width="13.1" height="3.3"/>
		</g>
		<linearGradient id="SVGID_28_" gradientUnits="userSpaceOnUse" x1="267.5213" y1="93.5872" x2="267.5213" y2="70.3156">
			<stop  offset="0" style="stop-color:#333333"/>
			<stop  offset="0.154" style="stop-color:#555555"/>
			<stop  offset="0.5661" style="stop-color:#ACACAC"/>
			<stop  offset="0.8566" style="stop-color:#E2E2E2"/>
			<stop  offset="0.997" style="stop-color:#F7F7F7"/>
		</linearGradient>
		<path class="st30" d="M273,77.6h-10.9c0,0,2.5,6.7,3.2,8.1c0.6,1.4,1.3,1.9,3.1,1.9c1.8,0,1.8,0,2.8,0c1,0,1.8-0.7,1.8-2.7
			S273,77.6,273,77.6z"/>
		<linearGradient id="SVGID_29_" gradientUnits="userSpaceOnUse" x1="268.8373" y1="86.6087" x2="268.8373" y2="78.7483">
			<stop  offset="3.015020e-003" style="stop-color:#F7DE00"/>
			<stop  offset="0.1671" style="stop-color:#F9E641"/>
			<stop  offset="0.3313" style="stop-color:#FBEE7A"/>
			<stop  offset="0.4907" style="stop-color:#FCF4AA"/>
			<stop  offset="0.641" style="stop-color:#FDF9CF"/>
			<stop  offset="0.7802" style="stop-color:#FEFCE9"/>
			<stop  offset="0.904" style="stop-color:#FFFEF9"/>
			<stop  offset="1" style="stop-color:#FFFFFF"/>
		</linearGradient>
		<path class="st31" d="M272.6,78.7c-1,0-8.6,0-8.6,0s2.4,5.5,2.9,6.5c0.5,1,1,1.3,2.4,1.3c1.4,0,2.2,0,2.9,0c0.8,0,1.4-0.5,1.4-1.9
			c0-1,0-3.3,0-4.8C273.6,79.2,273.6,78.7,272.6,78.7z"/>
		<g>
			<g>
				<linearGradient id="SVGID_30_" gradientUnits="userSpaceOnUse" x1="230.5916" y1="117.9082" x2="230.5916" y2="75.3953">
					<stop  offset="3.015020e-003" style="stop-color:#348223"/>
					<stop  offset="0.3273" style="stop-color:#217212"/>
					<stop  offset="0.6955" style="stop-color:#126605"/>
					<stop  offset="1" style="stop-color:#0D6200"/>
				</linearGradient>
				<path class="st32" d="M230.6,79.8c-15,0-27.1,11.6-27.1,25.7h54.2C257.7,91.3,245.6,79.8,230.6,79.8z"/>
				<linearGradient id="SVGID_31_" gradientUnits="userSpaceOnUse" x1="230.5916" y1="77.2779" x2="230.5916" y2="113.1251">
					<stop  offset="3.015020e-003" style="stop-color:#D4F774"/>
					<stop  offset="0.1513" style="stop-color:#AEDD61"/>
					<stop  offset="0.3394" style="stop-color:#84C04C"/>
					<stop  offset="0.523" style="stop-color:#63A93B"/>
					<stop  offset="0.698" style="stop-color:#4B9930"/>
					<stop  offset="0.861" style="stop-color:#3D8F28"/>
					<stop  offset="1" style="stop-color:#388C26"/>
				</linearGradient>
				<path class="st33" d="M204,107c1.4-14.1,12.7-25.1,26.6-25.1c13.8,0,25.2,11,26.6,25.1h1.4c0,0,0,0,0,0c0-15.4-12.5-28-27.9-28
					c-15.4,0-27.9,12.6-27.9,28c0,0,0,0,0,0H204z"/>
			</g>
			<g>
				
					<radialGradient id="SVGID_32_" cx="228.6359" cy="103.5157" r="24.2206" gradientTransform="matrix(0.9997 2.370000e-002 -2.370000e-002 0.9997 4.4774 -2.5995)" gradientUnits="userSpaceOnUse">
					<stop  offset="0" style="stop-color:#000000"/>
					<stop  offset="0.4223" style="stop-color:#020202"/>
					<stop  offset="0.637" style="stop-color:#0A0A0A"/>
					<stop  offset="0.8049" style="stop-color:#171717"/>
					<stop  offset="0.9477" style="stop-color:#2A2A2A"/>
					<stop  offset="1" style="stop-color:#333333"/>
				</radialGradient>
				<circle class="st34" cx="230.6" cy="106.3" r="20.5"/>
				
					<radialGradient id="SVGID_33_" cx="228.6361" cy="103.5154" r="13.2965" gradientTransform="matrix(0.9997 2.370000e-002 -2.370000e-002 0.9997 4.4774 -2.5995)" gradientUnits="userSpaceOnUse">
					<stop  offset="3.015020e-003" style="stop-color:#3B3B3B"/>
					<stop  offset="1" style="stop-color:#333333"/>
				</radialGradient>
				<circle class="st35" cx="230.6" cy="106.3" r="13.3"/>
				
					<radialGradient id="SVGID_34_" cx="228.6359" cy="103.5157" r="14.0482" gradientTransform="matrix(0.9997 2.370000e-002 -2.370000e-002 0.9997 4.4774 -2.5995)" gradientUnits="userSpaceOnUse">
					<stop  offset="0.2973" style="stop-color:#333333"/>
					<stop  offset="0.5033" style="stop-color:#757575"/>
					<stop  offset="0.7397" style="stop-color:#BBBBBB"/>
					<stop  offset="0.9105" style="stop-color:#E7E7E7"/>
					<stop  offset="0.997" style="stop-color:#F7F7F7"/>
				</radialGradient>
				<circle class="st36" cx="230.6" cy="106.3" r="12.2"/>
				
					<ellipse transform="matrix(2.372018e-002 -0.9997 0.9997 2.372018e-002 118.8483 334.3087)" class="st17" cx="230.6" cy="106.3" rx="8.3" ry="8.3"/>
				
					<radialGradient id="SVGID_35_" cx="228.6361" cy="103.5155" r="5.1788" gradientTransform="matrix(0.9997 2.370000e-002 -2.370000e-002 0.9997 4.4774 -2.5995)" gradientUnits="userSpaceOnUse">
					<stop  offset="0.3884" style="stop-color:#333333"/>
					<stop  offset="0.5465" style="stop-color:#2D2D2D"/>
					<stop  offset="0.75" style="stop-color:#1D1D1D"/>
					<stop  offset="0.9775" style="stop-color:#030303"/>
					<stop  offset="1" style="stop-color:#000000"/>
				</radialGradient>
				<circle class="st37" cx="230.6" cy="106.3" r="5.2"/>
			</g>
		</g>
	</g>
</g>
<g id="magnifying_glass">
	<g>
		<path class="st38" d="M59.5,106.2c1.8-1.8,3.6-3.6,5.4-5.4c1.8-1.8,3.7-3.7,5.5-5.5c0.4-0.4,0.6-0.5,1.1-0.1
			c7,5.4,14.8,8.7,23.5,9.8c15.1,1.9,28.5-2.1,40-12.2c8.5-7.5,13.7-17.1,15.7-28.3c0.3-1.5,0.4-3,0.6-4.5c0-2.8,0-5.5,0-8.3
			c0-0.1-0.1-0.3-0.1-0.4c-0.3-3.5-1-6.9-2-10.2c-3-9.5-8.4-17.5-16.1-23.8c-6.2-5-13.2-8.3-20.9-10c-2.1-0.4-4.1-0.7-6.2-1
			c-2.8,0-5.5,0-8.3,0c-2,0.3-4,0.5-6,0.9c-10.8,2.3-19.8,7.6-27.1,15.8c-6,6.8-9.9,14.7-11.5,23.6C50.7,59.2,52.9,71,59.6,82
			c1,1.7,2.1,3.3,3.4,4.8c0.4,0.4,0.3,0.7-0.1,1.1c-3.6,3.6-7.2,7.2-10.8,10.8L59.5,106.2z M101.7,95.6c-21.8,0-39.4-17.7-39.4-39.4
			s17.7-39.4,39.4-39.4s39.4,17.7,39.4,39.4S123.5,95.6,101.7,95.6z"/>
	</g>
</g>
<line class="st39" x1="53" y1="97.8" x2="60.9" y2="104.8"/>
<path class="st39" d="M32.9,131.9l-7.3-7.3c-1.6-1.6-1.6-4.1,0-5.6l26.8-26.8c1.6-1.6,4.1-1.6,5.6,0l7.3,7.3c1.6,1.6,1.6,4.1,0,5.6
	l-26.8,26.8C37,133.5,34.4,133.5,32.9,131.9z"/>
</svg>
