<?xml version="1.0" encoding="utf-8"?>
<!-- Generator: Adobe Illustrator 19.2.1, SVG Export Plug-In . SVG Version: 6.00 Build 0)  -->
<svg version="1.1" id="Artboard_2" xmlns="http://www.w3.org/2000/svg" xmlns:xlink="http://www.w3.org/1999/xlink" x="0px" y="0px"
	 viewBox="0 0 286.7 278.7" style="enable-background:new 0 0 286.7 278.7;" xml:space="preserve">
<style type="text/css">
	.st0{opacity:0.1;}
	.st1{fill:#FFFFFF;}
	.st2{fill:#EAEAEA;}
	.st3{fill:#DD6D4B;}
	.st4{fill:#075EDB;}
	.st5{fill:#5EAEF7;}
	.st6{fill:#268FEF;}
	.st7{fill:none;stroke:#FFFFFF;stroke-width:10.3672;stroke-linecap:round;stroke-linejoin:round;stroke-miterlimit:10;}
</style>
<g>
	<g class="st0">
		<path d="M139.6,15.1H24.1c-7.5,0-13.6,6.1-13.6,13.6v191.2c0,7.5,6.1,13.6,13.6,13.6h144.4c7.5,0,13.6-6.1,13.6-13.6V57.5
			L139.6,15.1z"/>
		<path d="M139.6,44c0,7.5,6.1,13.6,13.6,13.6h28.9l-42.5-42.5V44z"/>
		<rect x="100.9" y="131" width="53.2" height="58.6"/>
		<rect x="44.6" y="62.1" width="67.3" height="12.6"/>
		<rect x="44.6" y="85.1" width="109.5" height="12.6"/>
		<rect x="44.6" y="108.1" width="109.5" height="12.6"/>
		<rect x="44.6" y="131" width="45.5" height="12.6"/>
		<rect x="44.6" y="154" width="45.5" height="12.6"/>
		<rect x="44.6" y="177" width="45.5" height="12.6"/>
	</g>
	<g>
		<g>
			<path class="st1" d="M134.3,9.7H18.8c-7.5,0-13.6,6.1-13.6,13.6v191.2c0,7.5,6.1,13.6,13.6,13.6h144.4c7.5,0,13.6-6.1,13.6-13.6
				V52.2L134.3,9.7z"/>
			<path class="st2" d="M134.3,38.6c0,7.5,6.1,13.6,13.6,13.6h28.9L134.3,9.7V38.6z"/>
			<rect x="95.5" y="125.7" class="st3" width="53.2" height="58.6"/>
			<rect x="39.2" y="56.8" class="st3" width="67.3" height="12.6"/>
			<rect x="39.2" y="79.7" class="st3" width="109.5" height="12.6"/>
			<rect x="39.2" y="102.7" class="st3" width="109.5" height="12.6"/>
			<rect x="39.2" y="125.7" class="st3" width="45.5" height="12.6"/>
			<rect x="39.2" y="148.7" class="st3" width="45.5" height="12.6"/>
			<rect x="39.2" y="171.6" class="st3" width="45.5" height="12.6"/>
		</g>
	</g>
</g>
<g>
	<g>
		<g class="st0">
			<path d="M251.9,76c0-3,0.4-5.9,1.1-8.6c-20.7-3.5-48.3-6.6-63.6-6.6c-14.8,0-41.1,2.9-61.6,6.3c0.8,2.9,1.2,5.9,1.2,9
				c0,18-14.1,32.7-31.9,33.6c2.2,29.7,9.8,70.1,18.9,91.9c14.9,36.1,66.6,67.9,73.5,73.5c6.8-5.6,58.5-37.3,73.4-73.5
				c9-21.8,16.7-62.3,18.9-92C265,107.5,251.9,93.3,251.9,76z"/>
			<path d="M189.4,77.5c-9.9,0-26.9,1.5-43.9,3.8c-2,18.5-13.8,34-30.3,41c1.6,13.4,4,27.4,6.8,40.1c2.9,13,6.2,24.5,9.5,32.5
				c9.9,24,42,47.9,57.9,59.2c0,0,0,0,0,0v-91.7L189.4,77.5C189.5,77.5,189.5,77.5,189.4,77.5z"/>
			<path d="M235.4,81.6c-17.5-2.4-35.6-4.1-45.9-4.1v85v91.7c16-11.3,47.9-35.2,57.9-59.2c3.3-8,6.6-19.5,9.5-32.5
				c2.9-13,5.3-27.4,6.9-41C248.3,114.1,237.3,99.2,235.4,81.6z"/>
		</g>
		<g>
			<g>
				<path class="st4" d="M247.1,71.2c0-3,0.4-5.9,1.1-8.6c-20.7-3.5-48.3-6.6-63.6-6.6c-14.8,0-41.1,2.9-61.6,6.3
					c0.8,2.9,1.2,5.9,1.2,9c0,18-14.1,32.7-31.9,33.6c2.2,29.7,9.8,70.1,18.9,91.9c14.9,36.1,66.6,67.9,73.5,73.5
					c6.8-5.6,58.5-37.3,73.4-73.5c9-21.8,16.7-62.3,18.9-92C260.2,102.7,247.1,88.5,247.1,71.2z"/>
				<g>
					<path class="st5" d="M184.7,72.7c-9.9,0-26.9,1.5-43.9,3.8c-2,18.5-13.8,34-30.3,41c1.6,13.4,4,27.4,6.8,40.1
						c2.9,13,6.2,24.5,9.5,32.5c9.9,24,42,47.9,57.9,59.2c0,0,0,0,0,0v-91.7L184.7,72.7C184.7,72.7,184.7,72.7,184.7,72.7z"/>
					<path class="st6" d="M230.6,76.9c-17.5-2.4-35.6-4.1-45.9-4.1v85v91.7c16-11.3,47.9-35.2,57.9-59.2c3.3-8,6.6-19.5,9.5-32.5
						c2.9-13,5.3-27.4,6.9-41C243.5,109.3,232.6,94.4,230.6,76.9z"/>
				</g>
			</g>
		</g>
	</g>
	<polyline class="st7" points="165.2,149.2 184.6,174.2 218.5,130.4 	"/>
</g>
</svg>
