<?xml version="1.0" encoding="utf-8"?>
<!-- Generator: Adobe Illustrator 19.2.1, SVG Export Plug-In . SVG Version: 6.00 Build 0)  -->
<svg version="1.1" id="Layer_1" xmlns="http://www.w3.org/2000/svg" xmlns:xlink="http://www.w3.org/1999/xlink" x="0px" y="0px"
	 viewBox="0 0 64 73.9" style="enable-background:new 0 0 64 73.9;" xml:space="preserve">
<style type="text/css">
	.st0{fill:#E3C6B8;}
	.st1{fill:#009590;}
	.st2{fill:#22BCD3;}
	.st3{fill:#48C3BC;}
	.st4{fill:#E0BBAB;}
	.st5{fill:#FBF100;}
	.st6{fill:#FFFFFF;}
	.st7{fill:#D06C6A;}
	.st8{fill:#F0CCBC;}
	.st9{fill:#037A74;}
	.st10{fill:#E0D007;}
</style>
<g>
	<path class="st0" d="M50,13.9c0,0.4-0.1,0.9-0.4,1.3c0,0,0,0,0,0v0c-0.4,0.7-1.1,1.4-1.9,2h0c-0.7,0.5-1.6,0.8-2.6,0.8
		c-0.5,0-1,0-1.6-0.1c0,0,0,0,0,0l-3.9-1.1l-0.8-0.2l-0.1,0c-0.3-0.1-0.6-0.2-0.9-0.4c-0.1,0-0.1-0.1-0.2-0.1c-0.9-0.7-1.4-2-1-3.2
		c0.4-1.3,1.5-2.2,2.8-2.2h0c0.3,0,0.6,0,0.9,0.1l5.7,1.6l2.4,0.7C49.1,13.1,49.6,13.5,50,13.9z"/>
	<path class="st1" d="M62.7,55.2c0,2.2-0.3,4.1-0.8,5.9C59.2,70.3,50,73.9,39.7,73.9c-0.2,0-0.4,0-0.7,0h0
		c-10-0.1-22.7-2.8-22.7-18.6c0-6.2,5-11.1,9.5-15.8c0.3-0.4,0.7-0.7,1-1c1.5-1.5,1.9-2,3.1-3.5c1.9-2.5,5.2-13.2,5.3-17.7
		c0-0.9,0.1-1.2,0-1.9l-0.2-1.1c-0.2-0.9-0.2-0.9-0.5-1.8c-0.1-0.2-0.3-0.9-0.4-1.1c-1.1-2.7-2.6-5.2-2.2-7.6
		c0.6,0.3,1.9,0.6,1.9,0.6C33.9,4,36,3.1,36.2,2.8c1.5-0.3,1.9,1.8,3.1,1.8c1.9,0,3.8-3.6,4.6,1.2c1.9-2.3,2.7-1.1,3.6,0.2
		c0.6,0.9,1.2,1.8,2.3,1.6c-1.1,1.4-1.9,2.8-2.4,4.2c0,0.1,0,0.1-0.1,0.2c-0.3,0.9-0.4,1.7-0.5,2.6c0.8,5.9-1,16.4,4,22.1
		C55.4,41.5,62.7,48.5,62.7,55.2z"/>
	<polygon class="st2" points="41.5,15.3 41.5,15.3 40,15.3 37.4,15.3 	"/>
	<path class="st3" d="M46.8,16.2c0,0.4,0,0.9,0,1.4c-0.5,0-1,0-1.6-0.1c0,0,0,0,0,0l-3.8-1.1l-1,0.4L35,18.9
		c0.2-1.2,0.2-2.4,0.1-3.6h4.7l2.2,0l2.5,0l2.4,0C46.8,15.6,46.8,15.9,46.8,16.2z"/>
	<path class="st4" d="M38.1,15.7c-0.1,0.1-0.2,0.3-0.2,0.5c-0.1,0-0.1-0.1-0.2-0.1C37.8,16,37.9,15.8,38.1,15.7z"/>
	<g>
		<path class="st5" d="M46,58.8c0,1.5-0.5,2.7-1.4,3.8c-0.6,0.7-1.5,1.2-2.7,1.5c-0.3,0.1-0.6,0.1-1,0.2l0,2.1l-2.9,0l0-2.2
			c-0.8-0.1-1.6-0.4-2.2-0.8c-0.8-0.5-1.5-1.2-2-2.1c-0.5-0.9-0.8-1.9-0.9-3l3.8-0.2c0.2,1.2,0.6,2.1,1.2,2.7c0.5,0.4,1,0.6,1.6,0.6
			c0.9,0,1.6-0.4,2.1-1c0.3-0.3,0.4-0.8,0.4-1.4c0-0.9-0.5-1.7-1.5-2.6c-0.8-0.6-1.9-1.5-3.5-2.7c-1.3-1-2.2-1.9-2.8-2.7
			c-0.6-0.9-0.9-1.9-0.9-3c0-1.9,0.8-3.4,2.4-4.4c0.6-0.4,1.4-0.6,2.2-0.8l0-2.2l2.9,0l0,2.2c0.8,0.1,1.5,0.3,2.2,0.7
			c0.8,0.4,1.4,0.9,1.9,1.7c0.5,0.7,0.8,1.5,0.9,2.4l-3.8,0.5c-0.1-0.9-0.4-1.5-0.9-2c-0.4-0.3-0.9-0.5-1.6-0.5
			c-0.7,0-1.3,0.3-1.6,0.8c-0.3,0.4-0.5,0.9-0.5,1.5c0,1,0.5,1.9,1.5,2.9c0.4,0.4,1,0.8,1.8,1.4c0.9,0.6,1.5,1,1.8,1.3
			c1,0.8,1.7,1.6,2.2,2.3c0.2,0.4,0.5,0.7,0.6,1C45.8,57.5,46,58.2,46,58.8z"/>
	</g>
	<rect x="14.5" y="16.8" class="st6" width="4.5" height="19.8"/>
	<rect x="2.3" y="14.4" class="st7" width="13.1" height="24.2"/>
	<path class="st8" d="M44.4,25.9v0.4h8.9c1.4,0,2.6,1.1,2.6,2.6c0,1.4-1.2,2.6-2.6,2.6h-8.9v0.4H51c1.4,0,2.6,1.1,2.6,2.6
		c0,1.4-1.2,2.6-2.6,2.6H36.6c-0.3,0-0.5,0-0.8,0h0c-0.4,0-0.8,0-1.2-0.1c-0.1,0-0.2,0-0.3,0c-2-0.2-4.5-0.7-6.7-1.9
		c-2-1-7.1-0.3-8.6-0.1V18.3h0v0c0.9,0,2.9,0,4.5-0.3c2.7-0.5,2.9-1.9,5.9-3.4c0.1-0.1,0.2-0.2,0.3-0.2c0.2-0.2,0.4-0.3,0.7-0.4
		l2.4-0.9l1.6-0.6c0.3,0.9,0.6,1.9,0.7,2.9h6.4v0h10.8c1.4,0,2.6,1.1,2.6,2.6c0,1.4-1.1,2.6-2.6,2.6h-7.9v0.4h10.5
		c1.4,0,2.6,1.1,2.6,2.6c0,1.4-1.2,2.6-2.6,2.6H44.4z"/>
	<path class="st9" d="M51.5,37.4l-7.1,7.1l-2.6,2.6l-3.3,3.3L36,52.8L20.8,68c-2.7-2.8-4.5-6.8-4.5-12.7c0-6.2,5-11.1,9.5-15.8
		c0.3-0.4,0.7-0.7,1-1c1.2-1.3,1.7-1.8,2.5-2.8c1.8,0.7,3.5,1,5.1,1.2c0.1,0,0.2,0,0.3,0c0.4,0,0.9,0.1,1.3,0.1h0c0.3,0,0.5,0,0.8,0
		h14.3c0,0,0.1,0,0.1,0C51.2,37.1,51.3,37.2,51.5,37.4z"/>
	<path class="st10" d="M43.1,43.5c-0.6-0.3-1.4-0.5-2.2-0.7l0-2.2l-2.9,0l0,2.2c-0.9,0.1-1.6,0.4-2.2,0.8c-1.6,1-2.4,2.4-2.4,4.4
		c0,1.1,0.3,2.1,0.9,3c0.4,0.6,1,1.2,1.8,1.9l2.5-2.5l0,0c-0.7-0.8-1.1-1.6-1.1-2.4c0-0.6,0.2-1.1,0.5-1.5c0.4-0.5,0.9-0.8,1.6-0.8
		c0.7,0,1.2,0.2,1.6,0.5c0.3,0.3,0.5,0.6,0.6,1l2.6-2.6l0,0C44,44,43.6,43.7,43.1,43.5z"/>
</g>
</svg>
